<?xml version="1.0" encoding="UTF-8" standalone="no"?>
<svg
   viewBox="64 -65 897 897"
   version="1.1"
   id="svg6"
   xmlns="http://www.w3.org/2000/svg"
   xmlns:svg="http://www.w3.org/2000/svg">
  <defs
     id="defs9" />
  <g
     id="g4">
    <path
       id="path1885"
       style="display:inline;fill:#000000;stroke:#000000;stroke-width:1px;stroke-linecap:butt;stroke-linejoin:miter;stroke-opacity:1"
       d="m 512.36363,593.27592 46.89208,47.73996 214.43849,-210.63 c 24.26131,-23.83041 25.60505,-63.5926 -1.28634,-92.53572 L 557.93424,119.49856 512.32852,164.2943 726.80213,382.64592 Z m -1.4836,10e-4 -46.89208,47.73996 -214.43849,-210.63 c -24.26131,-23.83041 -25.60505,-63.5926 1.28634,-92.53572 L 465.30942,119.49966 510.91514,164.2954 296.44153,382.64702 Z M 888,760 v 0 0 V 7 7 H 136 v 0 753 0 z m 0,72 H 136 C 116,832 99,825 85,811 71,797 64,780 64,760 V 7 c 0,-19.333333 7,-36.166667 21,-50.5 14,-14.333333 31,-21.5 51,-21.5 h 753 c 19.33333,0 36.16667,7.166667 50.5,21.5 14.33333,14.333333 21.5,31.166667 21.5,50.5 v 753 c 0,20 -7.16667,37 -21.5,51 -14.33333,14 -31.5,21 -51.5,21 z" />
  </g>
</svg>
