<?xml version="1.0" encoding="UTF-8" standalone="no"?>
<svg
   viewBox="64 -65 897 897"
   version="1.1"
   id="svg6"
   xmlns="http://www.w3.org/2000/svg"
   xmlns:svg="http://www.w3.org/2000/svg">
  <defs
     id="defs10" />
  <g
     id="g4">
    <path
       d="m 888,760 v 0 0 V 7 7 H 136 v 0 753 0 z m 0,72 H 136 C 116,832 99,825 85,811 71,797 64,780 64,760 V 7 c 0,-19.333333 7,-36.166667 21,-50.5 14,-14.333333 31,-21.5 51,-21.5 h 753 c 19.33333,0 36.16667,7.166667 50.5,21.5 14.33333,14.333333 21.5,31.166667 21.5,50.5 v 753 c 0,20 -7.16667,37 -21.5,51 -14.33333,14 -31.5,21 -51.5,21 z"
       id="path2" />
    <path
       style="display:inline;fill:#000000;stroke:#000000;stroke-width:1px;stroke-linecap:butt;stroke-linejoin:miter;stroke-opacity:1"
       d="M 397.42409,183.37954 V 116.4619 h 300.58089 c 34.00733,0 62.82907,27.42526 63.92608,66.91764 V 489.44548 H 698.00498 V 183.37954 Z"
       id="path1413" />
    <path
       style="display:inline;fill:#000000;stroke:#000000;stroke-width:1px;stroke-linecap:butt;stroke-linejoin:miter;stroke-opacity:1"
       d="m 622.37837,570.1691 v 66.91764 H 321.79749 c -34.00734,0 -62.82907,-27.42526 -63.92608,-66.91764 V 264.10316 h 63.92607 V 570.1691 Z"
       id="path1704" />
  </g>
</svg>
