<?xml version="1.0" encoding="UTF-8" standalone="no"?>
<svg
   viewBox="64 -65 897 897"
   version="1.1"
   id="svg61"
   xmlns="http://www.w3.org/2000/svg"
   xmlns:svg="http://www.w3.org/2000/svg">
  <defs
     id="defs65" />
  <g
     id="g59">
    <path
       id="path370"
       style="display:inline"
       d="m 136,-65 c -20,0 -37,7.166667 -51,21.5 C 71,-29.166667 64,-12.333333 64,7 v 753 c 0,20 7,37 21,51 14,14 31,21 51,21 h 752 c 20,0 37.16667,-7 51.5,-21 14.33333,-14 21.5,-31 21.5,-51 V 7 c 0,-19.333333 -7.16667,-36.166667 -21.5,-50.5 C 925.16667,-57.833333 908.33333,-65 889,-65 Z m 0,72 H 888 V 760 H 136 Z m 376,122 c -9.33333,0 -17.66667,3.5 -25,10.5 -7.33333,7 -11,15.5 -11,25.5 V 299.94336 348 420 476.81836 603 c 0,10 3.66667,18.5 11,25.5 7.33333,7 15.66667,10.5 25,10.5 10,0 18.5,-3.5 25.5,-10.5 7,-7 10.5,-15.5 10.5,-25.5 V 466.36914 420 348 292.48047 165 c 0,-10 -3.5,-18.5 -10.5,-25.5 -7,-7 -15.5,-10.5 -25.5,-10.5 z" />
    <path
       id="path_to_delete_for_minus"
       style="display:inline"
       d="M 477,420 V 348 H 292 c -10,0 -18.5,3.5 -25.5,10.5 -7,7 -10.5,15.5 -10.5,25.5 0,9.33333 3.5,17.66667 10.5,25 7,7.33333 15.5,11 25.5,11 z m 70,-72 v 72 h 185 c 10,0 18.5,-3.66667 25.5,-11 7,-7.33333 10.5,-15.66667 10.5,-25 0,-10 -3.5,-18.5 -10.5,-25.5 -7,-7 -15.5,-10.5 -25.5,-10.5 z" />
  </g>
</svg>
